<svg width="24" height="24" viewBox="0 0 24 24" fill="none" xmlns="http://www.w3.org/2000/svg">
<path d="M19.7778 6.99989C21.3119 6.99989 22.5556 5.75624 22.5556 4.22211C22.5556 2.68799 21.3119 1.44434 19.7778 1.44434C18.2437 1.44434 17 2.68799 17 4.22211C17 5.75624 18.2437 6.99989 19.7778 6.99989Z" stroke="#6800FF" stroke-width="1.11111" stroke-miterlimit="10" stroke-linecap="round" stroke-linejoin="round"/>
<path d="M4.22211 15.8888C5.75624 15.8888 6.99989 14.6452 6.99989 13.111C6.99989 11.5769 5.75624 10.3333 4.22211 10.3333C2.68799 10.3333 1.44434 11.5769 1.44434 13.111C1.44434 14.6452 2.68799 15.8888 4.22211 15.8888Z" stroke="#6800FF" stroke-width="1.11111" stroke-miterlimit="10" stroke-linecap="round" stroke-linejoin="round"/>
<path d="M19.7778 22.5556C21.3119 22.5556 22.5556 21.3119 22.5556 19.7778C22.5556 18.2437 21.3119 17 19.7778 17C18.2437 17 17 18.2437 17 19.7778C17 21.3119 18.2437 22.5556 19.7778 22.5556Z" stroke="#6800FF" stroke-width="1.11111" stroke-miterlimit="10" stroke-linecap="round" stroke-linejoin="round"/>
<path d="M7 14.222L17 18.6665M17 5.88867L7 11.4442" stroke="#6800FF" stroke-width="1.11111" stroke-miterlimit="10" stroke-linecap="round" stroke-linejoin="round"/>
</svg>
